<svg width="120" height="59" viewBox="0 0 120 59" fill="none" xmlns="http://www.w3.org/2000/svg">
<path d="M9.44058 25.7103C9.58514 25.2654 10.2145 25.2654 10.3591 25.7103L11.9056 30.4698C11.9702 30.6688 12.1556 30.8035 12.3648 30.8035H17.3692C17.837 30.8035 18.0315 31.4021 17.6531 31.677L13.6044 34.6186C13.4352 34.7415 13.3643 34.9595 13.429 35.1585L14.9754 39.9179C15.12 40.3628 14.6108 40.7328 14.2323 40.4578L10.1837 37.5163C10.0144 37.3933 9.78525 37.3933 9.61601 37.5163L5.56735 40.4578C5.1889 40.7328 4.6797 40.3628 4.82426 39.9179L6.3707 35.1585C6.43535 34.9595 6.36453 34.7415 6.19528 34.6186L2.14663 31.677C1.76818 31.4021 1.96268 30.8035 2.43047 30.8035H7.43488C7.64408 30.8035 7.82949 30.6688 7.89414 30.4698L9.44058 25.7103Z" fill="#C1AE05"/>
<path d="M26.3418 25.7103C26.4864 25.2654 27.1158 25.2654 27.2603 25.7103L28.8068 30.4698C28.8714 30.6688 29.0569 30.8035 29.2661 30.8035H34.2705C34.7383 30.8035 34.9328 31.4021 34.5543 31.677L30.5057 34.6186C30.3364 34.7415 30.2656 34.9595 30.3302 35.1585L31.8767 39.9179C32.0212 40.3628 31.512 40.7328 31.1336 40.4578L27.0849 37.5163C26.9157 37.3933 26.6865 37.3933 26.5173 37.5163L22.4686 40.4578C22.0901 40.7328 21.5809 40.3628 21.7255 39.9179L23.2719 35.1585C23.3366 34.9595 23.2658 34.7415 23.0965 34.6186L19.0479 31.677C18.6694 31.4021 18.8639 30.8035 19.3317 30.8035H24.3361C24.5453 30.8035 24.7307 30.6688 24.7954 30.4698L26.3418 25.7103Z" fill="#C1AE05"/>
<path d="M43.2433 25.7103C43.3879 25.2654 44.0173 25.2654 44.1618 25.7103L45.7083 30.4698C45.7729 30.6688 45.9583 30.8035 46.1675 30.8035H51.172C51.6397 30.8035 51.8342 31.4021 51.4558 31.677L47.4071 34.6186C47.2379 34.7415 47.1671 34.9595 47.2317 35.1585L48.7782 39.9179C48.9227 40.3628 48.4135 40.7328 48.0351 40.4578L43.9864 37.5163C43.8172 37.3933 43.588 37.3933 43.4187 37.5163L39.3701 40.4578C38.9916 40.7328 38.4824 40.3628 38.627 39.9179L40.1734 35.1585C40.2381 34.9595 40.1673 34.7415 39.998 34.6186L35.9494 31.677C35.5709 31.4021 35.7654 30.8035 36.2332 30.8035H41.2376C41.4468 30.8035 41.6322 30.6688 41.6969 30.4698L43.2433 25.7103Z" fill="#C1AE05"/>
<path d="M60.1444 25.7103C60.289 25.2654 60.9184 25.2654 61.063 25.7103L62.6094 30.4698C62.6741 30.6688 62.8595 30.8035 63.0687 30.8035H68.0731C68.5409 30.8035 68.7354 31.4021 68.3569 31.677L64.3083 34.6186C64.139 34.7415 64.0682 34.9595 64.1328 35.1585L65.6793 39.9179C65.8238 40.3628 65.3146 40.7328 64.9362 40.4578L60.8875 37.5163C60.7183 37.3933 60.4891 37.3933 60.3199 37.5163L56.2712 40.4578C55.8928 40.7328 55.3836 40.3628 55.5281 39.9179L57.0746 35.1585C57.1392 34.9595 57.0684 34.7415 56.8991 34.6186L52.8505 31.677C52.472 31.4021 52.6665 30.8035 53.1343 30.8035H58.1387C58.3479 30.8035 58.5333 30.6688 58.598 30.4698L60.1444 25.7103Z" fill="#C1AE05"/>
<path d="M77.0461 25.7103C77.1906 25.2654 77.82 25.2654 77.9646 25.7103L79.511 30.4698C79.5757 30.6688 79.7611 30.8035 79.9703 30.8035H84.9747C85.4425 30.8035 85.637 31.4021 85.2585 31.677L81.2099 34.6186C81.0406 34.7415 80.9698 34.9595 81.0345 35.1585L82.5809 39.9179C82.7255 40.3628 82.2163 40.7328 81.8378 40.4578L77.7892 37.5163C77.6199 37.3933 77.3907 37.3933 77.2215 37.5163L73.1728 40.4578C72.7944 40.7328 72.2852 40.3628 72.4297 39.9179L73.9762 35.1585C74.0408 34.9595 73.97 34.7415 73.8008 34.6186L69.7521 31.677C69.3736 31.4021 69.5681 30.8035 70.0359 30.8035H75.0403C75.2495 30.8035 75.435 30.6688 75.4996 30.4698L77.0461 25.7103Z" fill="#C1AE05"/>
<path d="M3.03899 56.4532C2.72392 56.4532 2.43219 56.4153 2.16379 56.3395C1.90123 56.2578 1.67368 56.144 1.48113 55.9981C1.29442 55.8523 1.14564 55.6743 1.03478 55.4643C0.929752 55.2484 0.87724 55.0033 0.87724 54.7291C0.87724 54.3265 0.996851 53.991 1.23607 53.7226C1.48113 53.4484 1.80496 53.2529 2.20755 53.1362C1.86914 53.037 1.59782 52.8737 1.39361 52.6461C1.19523 52.4127 1.09604 52.1151 1.09604 51.7534C1.09604 51.5025 1.14272 51.2808 1.23607 51.0882C1.33526 50.8957 1.47238 50.7352 1.64742 50.6069C1.82246 50.4727 2.02667 50.3735 2.26006 50.3093C2.49928 50.2393 2.75893 50.2043 3.03899 50.2043C3.31322 50.2043 3.56703 50.2364 3.80042 50.3006C4.03964 50.3647 4.24677 50.461 4.42182 50.5894C4.59686 50.7177 4.73397 50.8782 4.83316 51.0707C4.93235 51.2633 4.98195 51.485 4.98195 51.7359C4.98195 52.0976 4.87984 52.3952 4.67562 52.6286C4.47141 52.862 4.2001 53.0312 3.86169 53.1362C4.26428 53.2412 4.58519 53.428 4.82441 53.6964C5.06363 53.9589 5.18324 54.2944 5.18324 54.7028C5.18324 54.9771 5.12781 55.2221 5.01695 55.438C4.91193 55.6539 4.76315 55.8377 4.5706 55.9894C4.37806 56.1411 4.1505 56.2578 3.88794 56.3395C3.62538 56.4153 3.3424 56.4532 3.03899 56.4532ZM3.03899 52.8387C3.38324 52.8387 3.66622 52.754 3.88794 52.5848C4.10966 52.4098 4.22052 52.1647 4.22052 51.8497C4.22052 51.5054 4.10966 51.2399 3.88794 51.0532C3.66622 50.8665 3.38324 50.7732 3.03899 50.7732C2.70058 50.7732 2.4176 50.8665 2.19005 51.0532C1.96833 51.2399 1.85747 51.5054 1.85747 51.8497C1.85747 52.1647 1.96833 52.4098 2.19005 52.5848C2.41176 52.754 2.69475 52.8387 3.03899 52.8387ZM3.03899 55.8844C3.23154 55.8844 3.4095 55.8581 3.57287 55.8056C3.74207 55.7472 3.88794 55.6626 4.01047 55.5518C4.133 55.4409 4.22927 55.3067 4.29929 55.1492C4.3693 54.9858 4.40431 54.802 4.40431 54.5978C4.40431 54.4111 4.3693 54.2448 4.29929 54.0989C4.22927 53.9472 4.133 53.8218 4.01047 53.7226C3.88794 53.6176 3.74207 53.5388 3.57287 53.4863C3.4095 53.4338 3.23154 53.4075 3.03899 53.4075C2.6364 53.4075 2.30382 53.5126 2.04126 53.7226C1.78453 53.9268 1.65617 54.2186 1.65617 54.5978C1.65617 55.0121 1.78453 55.3301 2.04126 55.5518C2.30382 55.7735 2.6364 55.8844 3.03899 55.8844ZM7.28401 56.3657V51.0182L6.08498 52.2435L5.81366 51.6921L7.249 50.2831H8.06294V56.3657H7.28401ZM13.3105 56.4532C13.0246 56.4532 12.7533 56.4036 12.4966 56.3045C12.2399 56.1994 12.0152 56.0506 11.8227 55.8581C11.6301 55.6597 11.4755 55.4205 11.3588 55.1404C11.248 54.8545 11.1925 54.5278 11.1925 54.1602C11.1925 53.7926 11.248 53.4688 11.3588 53.1887C11.4755 52.9028 11.6301 52.6636 11.8227 52.4711C12.0152 52.2785 12.2399 52.1327 12.4966 52.0335C12.7533 51.9284 13.0246 51.8759 13.3105 51.8759C13.5964 51.8759 13.8677 51.9284 14.1245 52.0335C14.387 52.1327 14.6146 52.2785 14.8071 52.4711C15.0055 52.6636 15.1631 52.9028 15.2797 53.1887C15.3964 53.4688 15.4548 53.7926 15.4548 54.1602C15.4548 54.5278 15.3964 54.8545 15.2797 55.1404C15.1631 55.4205 15.0055 55.6597 14.8071 55.8581C14.6146 56.0506 14.387 56.1994 14.1245 56.3045C13.8677 56.4036 13.5964 56.4532 13.3105 56.4532ZM13.3105 55.9019C13.4856 55.9019 13.6548 55.8727 13.8182 55.8143C13.9874 55.7502 14.1361 55.6481 14.2645 55.508C14.3929 55.368 14.495 55.1871 14.5708 54.9654C14.6525 54.7437 14.6934 54.4753 14.6934 54.1602C14.6934 53.8451 14.6525 53.5797 14.5708 53.3638C14.495 53.1421 14.3929 52.9612 14.2645 52.8211C14.1361 52.6811 13.9874 52.5819 13.8182 52.5236C13.6548 52.4594 13.4856 52.4273 13.3105 52.4273C13.1355 52.4273 12.9663 52.4594 12.8029 52.5236C12.6454 52.5819 12.5024 52.6811 12.3741 52.8211C12.2457 52.9612 12.1436 53.1421 12.0677 53.3638C11.9919 53.5797 11.954 53.8451 11.954 54.1602C11.954 54.4753 11.9919 54.7437 12.0677 54.9654C12.1436 55.1871 12.2457 55.368 12.3741 55.508C12.5024 55.6481 12.6454 55.7502 12.8029 55.8143C12.9663 55.8727 13.1355 55.9019 13.3105 55.9019ZM18.0427 52.4886V56.3657H17.29V52.4886H15.9509V51.9634H19.408V52.4886H18.0427ZM21.3954 56.4532C21.0978 56.4532 20.8236 56.4153 20.5727 56.3395C20.3218 56.2636 20.1292 56.1732 19.995 56.0682L20.1963 55.5605C20.348 55.6656 20.5318 55.7502 20.7477 55.8143C20.9636 55.8727 21.1882 55.9019 21.4216 55.9019C21.7075 55.9019 21.9467 55.8406 22.1393 55.7181C22.3318 55.5897 22.4281 55.3767 22.4281 55.0792C22.4281 54.6007 22.0839 54.3615 21.3954 54.3615H20.809V53.7839H21.4216C21.7075 53.7839 21.9205 53.7255 22.0605 53.6088C22.2064 53.4863 22.2793 53.32 22.2793 53.11C22.2793 52.9816 22.256 52.8737 22.2093 52.7861C22.1626 52.6928 22.0984 52.6199 22.0168 52.5673C21.9351 52.509 21.8388 52.4681 21.7279 52.4448C21.6229 52.4156 21.5062 52.401 21.3779 52.401C21.162 52.401 20.9665 52.439 20.7915 52.5148C20.6223 52.5907 20.456 52.6899 20.2926 52.8124L20.1001 52.2523C20.2401 52.1414 20.4239 52.051 20.6514 51.981C20.879 51.9109 21.1416 51.8759 21.4391 51.8759C21.9234 51.8759 22.2968 51.9751 22.5594 52.1735C22.8278 52.366 22.962 52.649 22.962 53.0224C22.962 53.3083 22.8803 53.5359 22.7169 53.7051C22.5536 53.8685 22.3493 53.9735 22.1043 54.0202C22.8044 54.1369 23.1545 54.5045 23.1545 55.1229C23.1545 55.3622 23.1049 55.5664 23.0057 55.7356C22.9124 55.8989 22.784 56.0361 22.6207 56.1469C22.4631 56.2519 22.2764 56.3278 22.0605 56.3745C21.8505 56.427 21.6288 56.4532 21.3954 56.4532ZM28.7944 56.3657H28.0505V51.9634H28.7944V56.3657ZM24.8997 53.8976V55.8406H25.5736C25.8946 55.8406 26.1542 55.7589 26.3526 55.5955C26.5568 55.4322 26.6589 55.1842 26.6589 54.8516C26.6589 54.5132 26.5685 54.2711 26.3876 54.1252C26.2067 53.9735 25.9529 53.8976 25.6262 53.8976H24.8997ZM24.1558 51.9634H24.8997V53.3725H25.6262C26.1921 53.3725 26.6297 53.4892 26.939 53.7226C27.254 53.9502 27.4116 54.3119 27.4116 54.8079C27.4116 55.0646 27.3649 55.2921 27.2715 55.4905C27.184 55.6831 27.0586 55.8464 26.8952 55.9806C26.7318 56.109 26.5364 56.2053 26.3088 56.2695C26.0871 56.3336 25.842 56.3657 25.5736 56.3657H24.1558V51.9634ZM30.78 52.4886V53.7926H31.5152C31.8478 53.7926 32.087 53.7314 32.2329 53.6088C32.3846 53.4805 32.4604 53.3142 32.4604 53.11C32.4604 52.8649 32.3816 52.7015 32.2241 52.6199C32.0724 52.5323 31.8565 52.4886 31.5764 52.4886H30.78ZM30.78 54.3177V55.8406H31.5677C31.8828 55.8406 32.1366 55.7852 32.3291 55.6743C32.5217 55.5576 32.6179 55.3534 32.6179 55.0617C32.6179 54.5657 32.2679 54.3177 31.5677 54.3177H30.78ZM30.0361 51.9634H31.5852C32.1162 51.9634 32.5158 52.051 32.7842 52.226C33.0585 52.3952 33.1956 52.6694 33.1956 53.0487C33.1956 53.5388 32.9213 53.8539 32.3729 53.9939C32.7171 54.0523 32.9709 54.1748 33.1343 54.3615C33.3035 54.5424 33.3881 54.7816 33.3881 55.0792C33.3881 55.3067 33.3414 55.5022 33.2481 55.6656C33.1606 55.8289 33.0351 55.9631 32.8718 56.0682C32.7142 56.1673 32.5246 56.2432 32.3029 56.2957C32.0812 56.3424 31.839 56.3657 31.5764 56.3657H30.0361V51.9634ZM36.7042 54.7028C36.4883 54.7028 36.3074 54.6328 36.1616 54.4928C36.0215 54.3469 35.9515 54.169 35.9515 53.9589C35.9515 53.7372 36.0215 53.5563 36.1616 53.4163C36.3074 53.2763 36.4883 53.2062 36.7042 53.2062C36.9259 53.2062 37.1068 53.2763 37.2468 53.4163C37.3868 53.5563 37.4569 53.7372 37.4569 53.9589C37.4569 54.169 37.3868 54.3469 37.2468 54.4928C37.1068 54.6328 36.9259 54.7028 36.7042 54.7028ZM41.352 56.3657V51.0182L40.153 52.2435L39.8817 51.6921L41.317 50.2831H42.1309V56.3657H41.352ZM45.9273 56.4532C45.583 56.4532 45.2592 56.3891 44.9558 56.2607C44.6582 56.1265 44.3986 55.9281 44.1769 55.6656C43.9551 55.403 43.7772 55.0763 43.643 54.6853C43.5146 54.2944 43.4504 53.8393 43.4504 53.32C43.4504 52.7949 43.5146 52.3398 43.643 51.9547C43.7772 51.5638 43.9551 51.2399 44.1769 50.9832C44.3986 50.7207 44.6582 50.5252 44.9558 50.3968C45.2592 50.2685 45.583 50.2043 45.9273 50.2043C46.2657 50.2043 46.5837 50.2685 46.8812 50.3968C47.1846 50.5252 47.4472 50.7177 47.6689 50.9745C47.8906 51.2312 48.0657 51.555 48.194 51.9459C48.3224 52.331 48.3866 52.7832 48.3866 53.3025C48.3866 53.8218 48.3224 54.2798 48.194 54.6766C48.0657 55.0675 47.8906 55.3942 47.6689 55.6568C47.4472 55.9194 47.1846 56.1177 46.8812 56.2519C46.5837 56.3861 46.2657 56.4532 45.9273 56.4532ZM45.9185 55.8844C46.1519 55.8844 46.3678 55.8406 46.5662 55.7531C46.7704 55.6597 46.9483 55.5139 47.1 55.3155C47.2517 55.1113 47.3713 54.8487 47.4589 54.5278C47.5464 54.2011 47.5901 53.8014 47.5901 53.3288C47.5901 52.8562 47.5464 52.4594 47.4589 52.1385C47.3713 51.8117 47.2517 51.5492 47.1 51.3508C46.9542 51.1466 46.7791 51.0007 46.5749 50.9132C46.3707 50.8198 46.1548 50.7732 45.9273 50.7732C45.6939 50.7732 45.4751 50.8198 45.2709 50.9132C45.0666 51.0007 44.8887 51.1466 44.737 51.3508C44.5853 51.5492 44.4657 51.8117 44.3782 52.1385C44.2906 52.4594 44.2469 52.8562 44.2469 53.3288C44.2469 53.8014 44.2906 54.2011 44.3782 54.5278C44.4657 54.8487 44.5853 55.1113 44.737 55.3155C44.8887 55.5139 45.0637 55.6597 45.2621 55.7531C45.4663 55.8406 45.6851 55.8844 45.9185 55.8844ZM51.7392 56.4532C51.3949 56.4532 51.0711 56.3891 50.7677 56.2607C50.4701 56.1265 50.2105 55.9281 49.9888 55.6656C49.767 55.403 49.5891 55.0763 49.4549 54.6853C49.3265 54.2944 49.2623 53.8393 49.2623 53.32C49.2623 52.7949 49.3265 52.3398 49.4549 51.9547C49.5891 51.5638 49.767 51.2399 49.9888 50.9832C50.2105 50.7207 50.4701 50.5252 50.7677 50.3968C51.0711 50.2685 51.3949 50.2043 51.7392 50.2043C52.0776 50.2043 52.3956 50.2685 52.6931 50.3968C52.9965 50.5252 53.2591 50.7177 53.4808 50.9745C53.7025 51.2312 53.8776 51.555 54.0059 51.9459C54.1343 52.331 54.1985 52.7832 54.1985 53.3025C54.1985 53.8218 54.1343 54.2798 54.0059 54.6766C53.8776 55.0675 53.7025 55.3942 53.4808 55.6568C53.2591 55.9194 52.9965 56.1177 52.6931 56.2519C52.3956 56.3861 52.0776 56.4532 51.7392 56.4532ZM51.7304 55.8844C51.9638 55.8844 52.1797 55.8406 52.3781 55.7531C52.5823 55.6597 52.7602 55.5139 52.9119 55.3155C53.0636 55.1113 53.1832 54.8487 53.2708 54.5278C53.3583 54.2011 53.402 53.8014 53.402 53.3288C53.402 52.8562 53.3583 52.4594 53.2708 52.1385C53.1832 51.8117 53.0636 51.5492 52.9119 51.3508C52.7661 51.1466 52.591 51.0007 52.3868 50.9132C52.1826 50.8198 51.9667 50.7732 51.7392 50.7732C51.5058 50.7732 51.287 50.8198 51.0828 50.9132C50.8785 51.0007 50.7006 51.1466 50.5489 51.3508C50.3972 51.5492 50.2776 51.8117 50.1901 52.1385C50.1025 52.4594 50.0588 52.8562 50.0588 53.3288C50.0588 53.8014 50.1025 54.2011 50.1901 54.5278C50.2776 54.8487 50.3972 55.1113 50.5489 55.3155C50.7006 55.5139 50.8756 55.6597 51.074 55.7531C51.2782 55.8406 51.497 55.8844 51.7304 55.8844ZM59.0023 56.4532C58.7164 56.4532 58.4451 56.4036 58.1884 56.3045C57.9317 56.1994 57.707 56.0506 57.5145 55.8581C57.3219 55.6597 57.1673 55.4205 57.0506 55.1404C56.9398 54.8545 56.8843 54.5278 56.8843 54.1602C56.8843 53.7926 56.9398 53.4688 57.0506 53.1887C57.1673 52.9028 57.3219 52.6636 57.5145 52.4711C57.707 52.2785 57.9317 52.1327 58.1884 52.0335C58.4451 51.9284 58.7164 51.8759 59.0023 51.8759C59.2882 51.8759 59.5595 51.9284 59.8163 52.0335C60.0788 52.1327 60.3064 52.2785 60.4989 52.4711C60.6973 52.6636 60.8548 52.9028 60.9715 53.1887C61.0882 53.4688 61.1466 53.7926 61.1466 54.1602C61.1466 54.5278 61.0882 54.8545 60.9715 55.1404C60.8548 55.4205 60.6973 55.6597 60.4989 55.8581C60.3064 56.0506 60.0788 56.1994 59.8163 56.3045C59.5595 56.4036 59.2882 56.4532 59.0023 56.4532ZM59.0023 55.9019C59.1774 55.9019 59.3466 55.8727 59.5099 55.8143C59.6792 55.7502 59.8279 55.6481 59.9563 55.508C60.0847 55.368 60.1868 55.1871 60.2626 54.9654C60.3443 54.7437 60.3852 54.4753 60.3852 54.1602C60.3852 53.8451 60.3443 53.5797 60.2626 53.3638C60.1868 53.1421 60.0847 52.9612 59.9563 52.8211C59.8279 52.6811 59.6792 52.5819 59.5099 52.5236C59.3466 52.4594 59.1774 52.4273 59.0023 52.4273C58.8273 52.4273 58.6581 52.4594 58.4947 52.5236C58.3372 52.5819 58.1942 52.6811 58.0659 52.8211C57.9375 52.9612 57.8354 53.1421 57.7595 53.3638C57.6837 53.5797 57.6458 53.8451 57.6458 54.1602C57.6458 54.4753 57.6837 54.7437 57.7595 54.9654C57.8354 55.1871 57.9375 55.368 58.0659 55.508C58.1942 55.6481 58.3372 55.7502 58.4947 55.8143C58.6581 55.8727 58.8273 55.9019 59.0023 55.9019ZM65.8844 57.7573L65.7356 56.3657H62.1297V51.9634H62.8737V55.8406H65.0442V51.9634H65.7881V55.8406H66.4533V57.7573H65.8844ZM68.923 52.4098C68.608 52.4098 68.3366 52.5207 68.1091 52.7424C67.8874 52.9641 67.7473 53.2996 67.689 53.7489H69.9208C69.9558 53.2938 69.877 52.9583 69.6845 52.7424C69.4978 52.5207 69.2439 52.4098 68.923 52.4098ZM70.5422 55.9894C70.3846 56.1236 70.1804 56.2344 69.9295 56.322C69.6786 56.4095 69.3927 56.4532 69.0718 56.4532C68.3717 56.4532 67.8349 56.2549 67.4614 55.8581C67.088 55.4555 66.9013 54.8895 66.9013 54.1602C66.9013 53.8043 66.9538 53.4863 67.0589 53.2062C67.1639 52.9203 67.3068 52.6782 67.4877 52.4798C67.6744 52.2814 67.8903 52.1327 68.1354 52.0335C68.3862 51.9284 68.6546 51.8759 68.9405 51.8759C69.2381 51.8759 69.5036 51.9284 69.737 52.0335C69.9762 52.1327 70.1717 52.2844 70.3234 52.4886C70.4809 52.6869 70.5859 52.9378 70.6384 53.2412C70.6968 53.5388 70.6968 53.8831 70.6384 54.274H67.6627C67.6977 55.3301 68.1908 55.8581 69.1418 55.8581C69.3927 55.8581 69.6174 55.8202 69.8157 55.7443C70.0141 55.6685 70.1979 55.5722 70.3671 55.4555L70.5422 55.9894ZM74.539 54.3528H72.4035V56.3657H71.6595V51.9634H72.4035V53.8276H74.539V51.9634H75.2829V56.3657H74.539V54.3528ZM78.3782 56.4532C78.0923 56.4532 77.821 56.4036 77.5642 56.3045C77.3075 56.1994 77.0829 56.0506 76.8903 55.8581C76.6978 55.6597 76.5432 55.4205 76.4265 55.1404C76.3156 54.8545 76.2602 54.5278 76.2602 54.1602C76.2602 53.7926 76.3156 53.4688 76.4265 53.1887C76.5432 52.9028 76.6978 52.6636 76.8903 52.4711C77.0829 52.2785 77.3075 52.1327 77.5642 52.0335C77.821 51.9284 78.0923 51.8759 78.3782 51.8759C78.6641 51.8759 78.9354 51.9284 79.1921 52.0335C79.4547 52.1327 79.6822 52.2785 79.8748 52.4711C80.0732 52.6636 80.2307 52.9028 80.3474 53.1887C80.4641 53.4688 80.5224 53.7926 80.5224 54.1602C80.5224 54.5278 80.4641 54.8545 80.3474 55.1404C80.2307 55.4205 80.0732 55.6597 79.8748 55.8581C79.6822 56.0506 79.4547 56.1994 79.1921 56.3045C78.9354 56.4036 78.6641 56.4532 78.3782 56.4532ZM78.3782 55.9019C78.5532 55.9019 78.7224 55.8727 78.8858 55.8143C79.055 55.7502 79.2038 55.6481 79.3322 55.508C79.4605 55.368 79.5626 55.1871 79.6385 54.9654C79.7202 54.7437 79.761 54.4753 79.761 54.1602C79.761 53.8451 79.7202 53.5797 79.6385 53.3638C79.5626 53.1421 79.4605 52.9612 79.3322 52.8211C79.2038 52.6811 79.055 52.5819 78.8858 52.5236C78.7224 52.4594 78.5532 52.4273 78.3782 52.4273C78.2031 52.4273 78.0339 52.4594 77.8706 52.5236C77.713 52.5819 77.5701 52.6811 77.4417 52.8211C77.3133 52.9612 77.2112 53.1421 77.1354 53.3638C77.0595 53.5797 77.0216 53.8451 77.0216 54.1602C77.0216 54.4753 77.0595 54.7437 77.1354 54.9654C77.2112 55.1871 77.3133 55.368 77.4417 55.508C77.5701 55.6481 77.713 55.7502 77.8706 55.8143C78.0339 55.8727 78.2031 55.9019 78.3782 55.9019ZM84.2012 56.3657L82.3633 54.0202L84.175 51.9634H84.9539L83.1597 53.9327L85.0764 56.3657H84.2012ZM82.2495 51.9634V56.3657H81.5056V51.9634H82.2495Z" fill="white"/>
<path d="M6.38718 8.43736V4.75959H5.52996C4.89395 4.75959 4.40082 4.91168 4.05056 5.21585C3.70029 5.52003 3.52516 5.99012 3.52516 6.62613C3.52516 7.17917 3.68186 7.62161 3.99525 7.95344C4.31786 8.27605 4.80639 8.43736 5.46083 8.43736H6.38718ZM6.38718 9.80615H5.15665L3.08272 13H0.773748L3.26246 9.36371C2.65411 9.12406 2.18863 8.77379 1.86602 8.31292C1.54341 7.84283 1.3821 7.30361 1.3821 6.69526C1.3821 5.59838 1.7508 4.77342 2.4882 4.22037C3.22559 3.66732 4.2303 3.3908 5.50231 3.3908H8.47494V13H6.38718V9.80615ZM14.9246 10.055H12.2838V13H10.2652V5.99012H12.2838V8.79684H14.9246V5.99012H16.9294V13H14.9246V10.055ZM20.6005 11.2579C20.5268 11.4146 20.4484 11.5575 20.3655 11.6865H23.0477V7.27596H21.2365C21.1996 8.22536 21.1305 9.02267 21.0291 9.66789C20.9369 10.3131 20.7941 10.8431 20.6005 11.2579ZM24.3612 13H19.7156L19.4115 15.1984H17.9597V11.6865H18.4989C18.7847 11.4561 19.0013 11.1289 19.1488 10.7049C19.3147 10.2348 19.4345 9.61719 19.5082 8.85214C19.5912 8.08709 19.6557 7.13309 19.7018 5.99012H25.0664V11.6865H26.1172V15.1984H24.6654L24.3612 13ZM30.1593 7.04091C29.7813 7.04091 29.468 7.18839 29.2191 7.48335C28.9794 7.76909 28.8227 8.19309 28.749 8.75536H31.3483C31.3668 8.16544 31.2654 7.73222 31.0441 7.4557C30.8321 7.17917 30.5372 7.04091 30.1593 7.04091ZM33.1042 12.4331C32.8922 12.5898 32.5696 12.7465 32.1364 12.9032C31.7032 13.0599 31.1732 13.1383 30.5464 13.1383C29.9104 13.1383 29.3527 13.0553 28.8734 12.8894C28.3941 12.7143 27.9932 12.47 27.6706 12.1566C27.3572 11.834 27.1175 11.4469 26.9516 10.9952C26.7949 10.5435 26.7165 10.0412 26.7165 9.48815C26.7165 8.92588 26.7995 8.42353 26.9654 7.98109C27.1313 7.52944 27.3664 7.14691 27.6706 6.83352C27.9747 6.52012 28.3342 6.28047 28.749 6.11456C29.173 5.93942 29.6431 5.85186 30.1593 5.85186C30.6754 5.85186 31.1409 5.93482 31.5557 6.10073C31.9705 6.26664 32.3115 6.51552 32.5788 6.84734C32.8554 7.17917 33.0443 7.59396 33.1457 8.0917C33.2563 8.58944 33.2563 9.16554 33.1457 9.81998H28.7213C28.7859 10.4836 28.9886 10.9768 29.3297 11.2994C29.68 11.6128 30.1593 11.7695 30.7676 11.7695C31.1548 11.7695 31.5096 11.7142 31.8322 11.6036C32.1641 11.4929 32.459 11.3593 32.7171 11.2026L33.1042 12.4331ZM36.6012 9.36371V13H34.5826V5.99012H36.6012V9.33606L39.3388 5.99012H41.1362L38.6336 9.07336L41.3297 13H39.0484L36.6012 9.36371ZM45.328 13.1383C44.8026 13.1383 44.3141 13.0599 43.8624 12.9032C43.4108 12.7465 43.019 12.5161 42.6872 12.2119C42.3646 11.9077 42.1065 11.5344 41.9129 11.092C41.7286 10.6495 41.6364 10.138 41.6364 9.55728C41.6364 8.9858 41.7332 8.46962 41.9268 8.00874C42.1203 7.54787 42.3876 7.16074 42.7287 6.84734C43.0697 6.52473 43.4753 6.28047 43.9454 6.11456C44.4247 5.93942 44.9409 5.85186 45.4939 5.85186C45.9732 5.85186 46.365 5.88873 46.6691 5.96247C46.9733 6.02699 47.2176 6.10534 47.4019 6.19751L46.9595 7.69074C46.7383 7.53405 46.5217 7.40961 46.3097 7.31744C46.1069 7.22526 45.8304 7.17917 45.4801 7.17917C45.2404 7.17917 45.0146 7.22987 44.8026 7.33126C44.5906 7.42344 44.4016 7.56631 44.2357 7.75987C44.079 7.94422 43.95 8.17927 43.8486 8.46501C43.7564 8.75075 43.7103 9.08719 43.7103 9.47432C43.7103 10.2578 43.8809 10.8431 44.2219 11.2302C44.5722 11.6174 45.0515 11.8109 45.6598 11.8109C45.9271 11.8109 46.1852 11.7649 46.4341 11.6727C46.6922 11.5713 46.9134 11.4469 47.0978 11.2994L47.5125 12.4608C47.3374 12.6175 47.0655 12.7696 46.6968 12.917C46.3373 13.0645 45.881 13.1383 45.328 13.1383ZM54.0646 3.3908V13H51.9078V3.3908H54.0646ZM57.7148 13L54.1476 8.28527L57.9636 3.3908H59.8855L56.346 7.92579L60.162 13H57.7148ZM63.5098 11.9077C63.8416 11.9077 64.1043 11.8294 64.2979 11.6727C64.5006 11.5068 64.6573 11.304 64.7679 11.0643V9.79232H64.2149C63.5881 9.79232 63.1503 9.88911 62.9014 10.0827C62.6618 10.2762 62.5419 10.5574 62.5419 10.9261C62.5419 11.2579 62.6295 11.5068 62.8046 11.6727C62.9798 11.8294 63.2148 11.9077 63.5098 11.9077ZM65.0445 13C64.9984 12.8802 64.9569 12.7419 64.92 12.5852C64.8924 12.4193 64.8693 12.2442 64.8509 12.0598C64.7679 12.1889 64.6666 12.3179 64.5467 12.447C64.4269 12.576 64.2886 12.6912 64.1319 12.7926C63.9752 12.894 63.7909 12.977 63.5789 13.0415C63.3669 13.106 63.1272 13.1383 62.8599 13.1383C62.5281 13.1383 62.2193 13.0968 61.9336 13.0138C61.6478 12.9309 61.4036 12.8064 61.2008 12.6405C60.998 12.4654 60.8367 12.2488 60.7169 11.9907C60.6063 11.7326 60.551 11.433 60.551 11.092C60.551 10.4099 60.8459 9.86145 61.4358 9.44667C62.0258 9.02267 62.9383 8.81066 64.1734 8.81066H64.7679V8.42353C64.7679 8.00874 64.6666 7.69996 64.4638 7.49718C64.261 7.28517 63.8831 7.17917 63.33 7.17917C62.9245 7.17917 62.5742 7.2483 62.2792 7.38657C61.9843 7.51561 61.6939 7.68153 61.4082 7.88431L60.8275 6.48786C61.1224 6.31273 61.4911 6.16525 61.9336 6.04543C62.3852 5.91638 62.9475 5.85186 63.6204 5.85186C64.6343 5.85186 65.4132 6.05003 65.957 6.44638C66.51 6.83352 66.7866 7.46952 66.7866 8.3544V11.8801C66.7866 12.0368 66.7912 12.235 66.8004 12.4746C66.8188 12.705 66.8419 12.8802 66.8695 13H65.0445ZM72.0141 11.8248C72.4842 11.8248 72.8667 11.6404 73.1616 11.2717C73.4658 10.8938 73.6179 10.2993 73.6179 9.48815C73.6179 8.69545 73.4658 8.11014 73.1616 7.73222C72.8575 7.35431 72.4749 7.16535 72.0141 7.16535C71.544 7.16535 71.1476 7.35431 70.825 7.73222C70.5116 8.10092 70.3549 8.68623 70.3549 9.48815C70.3549 9.89372 70.3964 10.244 70.4794 10.5389C70.5623 10.8339 70.6775 11.0782 70.825 11.2717C70.9817 11.4561 71.1568 11.5943 71.3504 11.6865C71.5532 11.7787 71.7744 11.8248 72.0141 11.8248ZM72.5948 13.1383C72.0786 13.1383 71.6361 13.0323 71.2674 12.8203C70.908 12.599 70.6084 12.2995 70.3687 11.9216V15.5025H68.3501V5.99012H70.1614L70.3134 7.15152C70.5439 6.74595 70.8481 6.42795 71.226 6.19751C71.6131 5.96708 72.0786 5.85186 72.6224 5.85186C73.028 5.85186 73.4151 5.9256 73.7838 6.07308C74.1525 6.22056 74.4751 6.44639 74.7516 6.75056C75.0374 7.04552 75.2632 7.42344 75.4291 7.88431C75.595 8.33596 75.678 8.87058 75.678 9.48815C75.678 10.1057 75.595 10.6449 75.4291 11.1058C75.2632 11.5575 75.0374 11.9354 74.7516 12.2396C74.4659 12.5437 74.1387 12.7696 73.77 12.917C73.4013 13.0645 73.0095 13.1383 72.5948 13.1383ZM80.4114 7.38657V13H78.379V7.38657H76.4295V5.99012H82.3747V7.38657H80.4114ZM92.4981 13H90.4933V5.99012H92.4981V13ZM85.668 9.34989V11.8248H86.3869C86.7925 11.8248 87.1151 11.7326 87.3548 11.5482C87.6036 11.3547 87.7281 11.0367 87.7281 10.5942C87.7281 10.1518 87.6129 9.8338 87.3824 9.64024C87.1612 9.44667 86.8432 9.34989 86.4284 9.34989H85.668ZM83.6493 5.99012H85.668V8.17466H86.6635C87.6405 8.17466 88.4009 8.37283 88.9448 8.76919C89.4886 9.16554 89.7605 9.75545 89.7605 10.5389C89.7605 10.9445 89.6822 11.2994 89.5255 11.6036C89.3688 11.9077 89.1522 12.1658 88.8756 12.3778C88.5991 12.5806 88.2673 12.7373 87.8802 12.8479C87.5022 12.9493 87.0875 13 86.6358 13H83.6493V5.99012Z" fill="white"/>
<path d="M93.8733 40.5608C92.8773 40.5608 92.0184 40.4525 91.2966 40.236C90.5893 40.005 90.0335 39.7235 89.6293 39.3915L90.2789 37.2262C90.4955 37.385 90.7192 37.5366 90.9502 37.6809C91.1811 37.8253 91.4338 37.9552 91.708 38.0707C91.9823 38.1717 92.2855 38.2511 92.6175 38.3089C92.9495 38.3666 93.332 38.3955 93.7651 38.3955C94.7322 38.3955 95.4685 38.1501 95.9737 37.6593C96.4789 37.154 96.7315 36.425 96.7315 35.4723C96.7315 34.5773 96.5078 33.9205 96.0603 33.5019C95.6272 33.0688 95.0354 32.8523 94.2848 32.8523C93.7218 32.8523 93.2887 32.9461 92.9856 33.1338C92.6969 33.307 92.4948 33.4514 92.3793 33.5668H90.2789V25.2954H99.265V27.5689H92.7474V31.4881C92.9784 31.3294 93.2959 31.1706 93.7001 31.0118C94.1043 30.853 94.624 30.7736 95.2591 30.7736C95.952 30.7736 96.5944 30.8746 97.1863 31.0767C97.7781 31.2644 98.2833 31.5531 98.702 31.9429C99.135 32.3182 99.467 32.7945 99.698 33.372C99.9434 33.9494 100.066 34.6206 100.066 35.3857C100.066 36.2085 99.9218 36.9447 99.6331 37.5943C99.3443 38.2295 98.9329 38.7708 98.3988 39.2183C97.8647 39.6513 97.2151 39.9834 96.4501 40.2143C95.685 40.4453 94.8261 40.5608 93.8733 40.5608ZM101.328 42.6178C101.632 42.2858 101.899 41.9105 102.13 41.4918C102.375 41.0732 102.548 40.669 102.649 40.2793C102.245 40.1638 101.949 39.9617 101.761 39.673C101.574 39.3699 101.48 39.0595 101.48 38.7419C101.48 38.2655 101.632 37.8686 101.935 37.551C102.252 37.219 102.664 37.053 103.169 37.053C103.674 37.053 104.086 37.219 104.403 37.551C104.735 37.883 104.901 38.3449 104.901 38.9368C104.901 39.2977 104.851 39.6658 104.75 40.0411C104.649 40.402 104.519 40.7412 104.36 41.0588C104.201 41.3908 104.021 41.6867 103.819 41.9466C103.631 42.2208 103.443 42.4446 103.256 42.6178H101.328ZM112.069 40.5608C111.16 40.5608 110.308 40.4092 109.514 40.1061C108.734 39.7885 108.049 39.3121 107.457 38.677C106.879 38.0274 106.418 37.219 106.071 36.2518C105.739 35.2846 105.573 34.137 105.573 32.809C105.573 31.4954 105.739 30.355 106.071 29.3878C106.418 28.4062 106.879 27.605 107.457 26.9843C108.049 26.3492 108.734 25.88 109.514 25.5769C110.308 25.2593 111.16 25.1005 112.069 25.1005C112.964 25.1005 113.801 25.2521 114.581 25.5552C115.375 25.8583 116.06 26.3275 116.638 26.9627C117.215 27.5834 117.67 28.3773 118.002 29.3445C118.334 30.3117 118.5 31.4521 118.5 32.7657C118.5 34.0793 118.334 35.2269 118.002 36.2085C117.67 37.1757 117.215 37.9841 116.638 38.6336C116.06 39.2832 115.375 39.7668 114.581 40.0844C113.801 40.402 112.964 40.5608 112.069 40.5608ZM112.047 38.4604C112.509 38.4604 112.928 38.3666 113.303 38.1789C113.693 37.9913 114.025 37.6809 114.299 37.2479C114.574 36.8004 114.783 36.2157 114.927 35.494C115.086 34.7722 115.165 33.8844 115.165 32.8306C115.165 31.7768 115.086 30.8891 114.927 30.1673C114.768 29.4455 114.552 28.8681 114.278 28.4351C114.003 27.9876 113.671 27.67 113.282 27.4823C112.906 27.2947 112.502 27.2008 112.069 27.2008C111.622 27.2008 111.203 27.2947 110.813 27.4823C110.423 27.67 110.084 27.9876 109.795 28.4351C109.521 28.8681 109.305 29.4455 109.146 30.1673C108.987 30.8891 108.908 31.7768 108.908 32.8306C108.908 33.8844 108.98 34.7722 109.124 35.494C109.283 36.2157 109.5 36.8004 109.774 37.2479C110.048 37.6809 110.373 37.9913 110.748 38.1789C111.138 38.3666 111.571 38.4604 112.047 38.4604Z" fill="#827F7F"/>
</svg>
